# xmcd
# Copyright (C) 1995-1998 Ti Kan
#
# Track frame offsets:
#       150
#       10859
#       20491
#       30110
#       40964
#       51486
#       64965
#       77243
#       106197
#       116136
#       126094
#       137745
#       147768
#       158589
#       169514
#       181664
#       191774
#       202955
#       214796
#       225250
#
# Disc length: 3139 seconds
#
# Revision: 0
# Processed by: cddbd v1.5.2PL0 Copyright (c) Steve Scherf et al.
# Submitted via: CD-Transfer v1.0
#
DISCID=060c4114
DTITLE=Best Of The Rockin'50 - 
DYEAR=1950
DGENRE=
TTITLE0=Brook Benton/A Rockin Good Way
TTITLE1=The Diamonds/Little Darling
TTITLE2=Johnnny and The Hurricanes/Red River Rock
TTITLE3=Elvis Presley/ Blue Moon
TTITLE4=Clarence Frogman/ Ain't Got No Home
TTITLE5=Marilyn Monroe/I Wanna Be Loved By You
TTITLE6=The Platters/Only You
TTITLE7=Ray Charles/What'd I Say
TTITLE8=Bill Haley/ Rock Around The Clock
TTITLE9=The Champs/Tequila
TTITLE10=Lloyd Price/Personality
TTITLE11=The Every Brothers/Wake Up Little Suzy
TTITLE12=Little Richard/Tutti Frutti
TTITLE13=Fast Domino/Blueberry Hill
TTITLE14=Ben.e. King/ This Magic Moments
TTITLE15=Carl Perkins/Blue Suede Shoes
TTITLE16=Kingston Trio/Tom Dooley
TTITLE17=Gene Vincent/Be Bop A Lula
TTITLE18=The Coasters/ Charlie Brown
TTITLE19=Pat Boone/Love Litters In The Sand
EXTD=
EXTT0=
EXTT1=
EXTT2=
EXTT3=
EXTT4=
EXTT5=
EXTT6=
EXTT7=
EXTT8=
EXTT9=
EXTT10=
EXTT11=
EXTT12=
EXTT13=
EXTT14=
EXTT15=
EXTT16=
EXTT17=
EXTT18=
EXTT19=
PLAYORDER=
